<mxfile host="app.diagrams.net" modified="2022-10-02T20:03:38.171Z" agent="5.0 (Windows NT 10.0; Win64; x64) AppleWebKit/537.36 (KHTML, like Gecko) Chrome/100.0.4896.127 Safari/537.36" etag="KqRWMsxICXwwdyqV9Rv-" version="20.4.0" type="github">
  <diagram id="qJkjQiQwAqBUVsOAD7gO" name="第 1 页">
    <mxGraphModel dx="868" dy="450" grid="1" gridSize="10" guides="1" tooltips="1" connect="1" arrows="1" fold="1" page="1" pageScale="1" pageWidth="827" pageHeight="1169" math="0" shadow="0">
      <root>
        <mxCell id="0" />
        <mxCell id="1" parent="0" />
        <mxCell id="OaRqKbvJVjpW4cJuNy5g-1" value="" style="rounded=0;whiteSpace=wrap;html=1;" vertex="1" parent="1">
          <mxGeometry x="170" y="160" width="120" height="60" as="geometry" />
        </mxCell>
        <mxCell id="OaRqKbvJVjpW4cJuNy5g-3" style="edgeStyle=orthogonalEdgeStyle;rounded=0;orthogonalLoop=1;jettySize=auto;html=1;" edge="1" parent="1" source="OaRqKbvJVjpW4cJuNy5g-2">
          <mxGeometry relative="1" as="geometry">
            <mxPoint x="230" y="230" as="targetPoint" />
          </mxGeometry>
        </mxCell>
        <mxCell id="OaRqKbvJVjpW4cJuNy5g-2" value="" style="ellipse;whiteSpace=wrap;html=1;aspect=fixed;" vertex="1" parent="1">
          <mxGeometry x="190" y="330" width="80" height="80" as="geometry" />
        </mxCell>
      </root>
    </mxGraphModel>
  </diagram>
</mxfile>
